<svg width="80" height="17" viewBox="0 0 80 17" fill="none" xmlns="http://www.w3.org/2000/svg">
<path d="M4.7173 0.281866H12.8739C11.4832 0.563731 10.6374 0.833852 10.3367 1.09223C10.036 1.35061 9.88566 1.74404 9.88566 2.27254V10.6756C9.88566 11.1454 10.249 11.8677 10.9757 12.8425C11.7024 13.8173 12.6734 14.6805 13.8888 15.4321C15.1041 16.1838 16.4573 16.5596 17.9483 16.5596C18.5748 16.5596 19.0947 16.448 19.5082 16.2249C19.9342 16.0135 20.1472 15.6846 20.1472 15.2383C20.1472 14.886 19.9969 14.5983 19.6961 14.3751C19.3954 14.1637 19.1323 13.9817 18.9068 13.829C19.0697 13.5237 19.2576 13.3123 19.4706 13.1948C19.6836 13.0891 19.9655 13.0363 20.3164 13.0363C20.6797 13.0363 20.924 13.2183 21.0493 13.5824C21.1746 13.9465 21.2373 14.3047 21.2373 14.657C21.2373 15.3969 20.9867 15.9724 20.4855 16.3834C19.9969 16.7945 19.0446 17 17.6288 17C15.8121 17 14.4276 16.7299 13.4753 16.1896C12.5356 15.6611 11.527 14.9271 10.4495 13.9876C9.37196 13.048 8.50743 12.5782 7.85591 12.5782H4.54816C3.72122 12.5782 2.96946 12.8249 2.29287 13.3181C1.94205 13.6235 1.59749 13.9347 1.2592 14.2518C1.83555 13.1126 2.68755 12.4138 3.81519 12.1554C4.66719 12.0732 5.51918 11.991 6.37118 11.9088C7.148 11.7561 7.53641 11.21 7.53641 10.2705V2.39586C7.53641 1.8791 7.33594 1.47392 6.935 1.18031C6.54659 0.874957 6.01409 0.72228 5.33751 0.72228C3.72122 0.72228 2.58105 1.03351 1.91699 1.65596C1.26547 2.27841 0.939702 3.17098 0.939702 4.33368C0.939702 5.238 1.23414 6.00138 1.82302 6.62383C2.42443 7.24629 3.05716 7.55751 3.72122 7.55751C4.18481 7.55751 4.64839 7.41658 5.11198 7.13471C5.57556 6.85285 5.93265 6.30086 6.18324 5.47876C6.18324 6.35959 5.94518 6.98791 5.46906 7.36373C5.00548 7.72781 4.38528 7.90984 3.60846 7.90984C2.40564 7.90984 1.50352 7.61036 0.902114 7.0114C0.300705 6.40069 0 5.60794 0 4.63316C0 3.16511 0.507439 2.07288 1.52232 1.35648C2.53719 0.64007 3.60219 0.281866 4.7173 0.281866Z" fill="#3CB44B"/>
<path d="M12.6825 0.281866C12.9957 0.281866 13.2589 0.387565 13.4718 0.598964C13.6848 0.810363 13.7913 1.0981 13.7913 1.46218C13.7913 1.87323 13.6034 2.1962 13.2275 2.43109C12.8516 2.66598 12.5134 2.78342 12.2126 2.78342C11.9495 2.78342 11.7491 2.65423 11.6112 2.39586C11.4859 2.12573 11.4233 1.81451 11.4233 1.46218C11.4233 1.01589 11.5361 0.710536 11.7616 0.546114C11.9871 0.369949 12.2941 0.281866 12.6825 0.281866ZM12.4382 4.12228C12.8266 4.12228 13.096 4.26321 13.2463 4.54508C13.4092 4.82694 13.4906 5.16166 13.4906 5.54922V10.4995C13.5408 10.8283 13.6723 10.9927 13.8853 10.9927C14.0357 10.9927 14.2111 10.9164 14.4116 10.7637C14.612 10.6111 14.7436 10.5112 14.8062 10.4642C14.5055 10.9458 14.1986 11.2981 13.8853 11.5212C13.5846 11.7444 13.2401 11.856 12.8516 11.856C12.5259 11.856 12.2628 11.7268 12.0623 11.4684C11.8618 11.21 11.7616 10.9047 11.7616 10.5523V5.35544C11.7616 5.1323 11.6739 5.02073 11.4985 5.02073C11.2604 5.02073 10.8908 5.22038 10.3896 5.61969C10.4523 5.39655 10.7091 5.09119 11.1602 4.70363C11.6112 4.31606 12.0372 4.12228 12.4382 4.12228Z" fill="#3CB44B"/>
<path d="M16.6369 7.09948C17.2634 6.1247 17.8585 5.40242 18.4224 4.93264C18.9862 4.45112 19.4686 4.21036 19.8695 4.21036C20.3206 4.21036 20.615 4.32781 20.7528 4.56269C20.9032 4.78584 20.9784 5.20276 20.9784 5.81347V7.96269C20.9784 9.17237 20.6213 10.1237 19.9071 10.8166C19.2055 11.4978 18.3472 11.8383 17.3323 11.8383C16.5805 11.8383 15.9729 11.6035 15.5093 11.1337C15.0582 10.6639 14.8327 9.84767 14.8327 8.68497V3.04767C14.8327 2.19033 15.0708 1.46805 15.5469 0.880829C16.0355 0.29361 16.6745 0 17.4639 0H19.1553C18.7544 0.681175 18.2344 1.04525 17.5954 1.09223C16.9564 1.12746 16.6369 1.23316 16.6369 1.40933V7.09948ZM16.6369 9.53057C16.6369 10.5641 17.0379 11.0808 17.8398 11.0808C18.178 11.0808 18.4787 10.9223 18.7419 10.6052C19.0175 10.2763 19.1553 9.73022 19.1553 8.96684V6.71192C19.1553 6.46528 19.1303 6.27737 19.0802 6.14819C19.03 6.00725 18.8734 5.93679 18.6103 5.93679C18.1968 5.93679 17.7646 6.22452 17.3135 6.8C16.8625 7.37547 16.6369 7.78066 16.6369 8.01554V9.53057Z" fill="#3CB44B"/>
<path d="M25.56 4.1399C26.0487 4.1399 26.4496 4.22211 26.7629 4.38653C27.0886 4.55095 27.5271 4.89154 28.0784 5.40829L23.5115 9.68912C23.7621 10.0767 24.069 10.3292 24.4324 10.4466C24.8083 10.5523 25.228 10.6052 25.6916 10.6052C26.1552 10.6052 26.5874 10.5054 26.9884 10.3057C27.4019 10.106 27.7715 9.89464 28.0972 9.6715C27.5961 10.3879 27.0448 10.9282 26.4434 11.2922C25.8419 11.6446 25.1528 11.8207 24.376 11.8207C23.2609 11.8207 22.4715 11.486 22.008 10.8166C21.5444 10.1472 21.3126 9.42487 21.3126 8.64974C21.3126 7.28739 21.7198 6.19516 22.5342 5.37306C23.3486 4.55095 24.3572 4.1399 25.56 4.1399ZM23.3423 9.28394C23.7809 8.88463 24.2194 8.48532 24.6579 8.08601C25.322 7.41658 25.654 6.91157 25.654 6.57098C25.654 6.15993 25.5475 5.84283 25.3345 5.61969C25.1215 5.3848 24.8396 5.26736 24.4888 5.26736C24.0503 5.26736 23.7057 5.51399 23.4551 6.00725C23.2045 6.48877 23.0792 7.06425 23.0792 7.73368C23.0792 8.01554 23.098 8.28566 23.1356 8.54404C23.1732 8.79067 23.2421 9.0373 23.3423 9.28394Z" fill="#3CB44B"/>
<path d="M29.8588 4.12228C30.2096 4.12228 30.4289 4.28083 30.5166 4.59793C30.6168 4.90328 30.6669 5.44352 30.6669 6.21865V7.0114C31.143 6.38895 31.6254 5.76649 32.1141 5.14404C32.728 4.46287 33.3357 4.12228 33.9371 4.12228C34.2754 4.12228 34.5385 4.23972 34.7264 4.47461C34.9269 4.69775 35.0271 4.97375 35.0271 5.30259C35.0271 5.7019 34.7891 6.14819 34.313 6.64145C33.8369 7.12297 33.367 7.57513 32.9034 7.99793C32.9661 7.88048 33.0287 7.6867 33.0914 7.41658C33.1665 7.13471 33.2041 6.88808 33.2041 6.67668C33.2041 6.41831 33.154 6.20691 33.0538 6.04249C32.9661 5.87807 32.8094 5.79585 32.5839 5.79585C32.3459 5.79585 32.0452 6.00138 31.6818 6.41244C31.331 6.81174 30.9927 7.21693 30.6669 7.62798V10.9223C30.4539 11.1102 30.2033 11.304 29.9152 11.5036C29.627 11.6915 29.295 11.809 28.9191 11.856V6.02487C28.9191 5.77824 28.7938 5.65492 28.5432 5.65492C28.4304 5.65492 28.2989 5.69603 28.1485 5.77824C27.9982 5.8487 27.829 5.97202 27.6411 6.14819C27.8416 5.76062 28.1986 5.32608 28.7123 4.84456C29.226 4.36304 29.6082 4.12228 29.8588 4.12228Z" fill="#3CB44B"/>
<path d="M42.0187 0.281866L42.3194 0.0176174V0.281866H49.0289C49.0289 0.739897 49.2356 1.3095 49.6491 1.99067C50.0751 2.6601 50.3507 3.20035 50.476 3.6114C49.6616 2.93022 48.8535 2.24905 48.0516 1.56788C47.1745 1.07461 46.2161 0.82798 45.1761 0.82798H42.3006V6.34197C42.9146 5.62556 43.5222 5.04421 44.1236 4.59793C44.7376 4.1399 45.4893 3.91088 46.3789 3.91088C46.8676 3.91088 47.2435 4.04007 47.5066 4.29845C47.7697 4.55682 47.9013 4.89741 47.9013 5.32021C47.9013 5.70777 47.7697 6.1247 47.5066 6.57098C47.5442 6.26563 47.563 6.01313 47.563 5.81347C47.563 5.33195 47.469 5.02073 47.2811 4.87979C47.1056 4.72712 46.855 4.65078 46.5293 4.65078C45.8527 4.65078 44.9756 5.1734 43.8981 6.21865C42.8331 7.25216 42.3006 8.54404 42.3006 10.0943C42.3006 11.0573 42.4635 11.6387 42.7893 11.8383C43.1276 12.038 43.848 12.1378 44.9506 12.1378C46.191 12.1378 47.281 11.8736 48.2207 11.3451C49.1604 10.8048 49.8997 10.018 50.4384 8.98446C50.3758 9.53644 50.1879 10.1413 49.8746 10.799C49.5739 11.4449 49.292 12.038 49.0289 12.5782H43.5598H38.0908C38.3288 12.4608 38.5669 12.3434 38.8049 12.2259C39.5567 11.7914 39.9326 11.2746 39.9326 10.6756V4.49223C39.9326 3.94024 40.0078 3.47047 40.1581 3.0829C40.321 2.68359 40.7157 1.93195 41.3421 0.82798C39.3124 0.82798 37.8903 1.10985 37.0759 1.67358C36.2615 2.22556 35.8543 3.16511 35.8543 4.49223C35.8543 5.81934 36.0861 6.82349 36.5497 7.50466C37.0258 8.17409 37.7901 8.7848 38.8425 9.33679C37.3766 9.33679 36.3554 8.91986 35.7791 8.08601C35.2027 7.25216 34.9146 6.20691 34.9146 4.95026C34.9146 3.44698 35.4533 2.29603 36.5309 1.49741C37.6084 0.687047 39.4377 0.281866 42.0187 0.281866Z" fill="#3CB44B"/>
<path d="M62.8669 3.54093C63.0674 3.54093 63.3493 3.74059 63.7127 4.1399C64.076 4.53921 64.2577 4.92677 64.2577 5.30259C64.2577 5.53748 64.0948 5.96028 63.769 6.57098C63.4433 7.16995 62.9108 8.13299 62.1716 9.4601C61.4449 10.7755 60.9875 11.6446 60.7996 12.0674C59.8474 10.2822 58.9014 8.49706 57.9617 6.71192C57.7612 7.25216 57.2663 8.22107 56.477 9.61865C55.7001 11.0162 55.2679 11.809 55.1802 11.9969C54.1778 9.84767 53.3509 8.22107 52.6994 7.1171C52.0604 6.00138 51.5467 5.44352 51.1582 5.44352C50.9828 5.44352 50.7698 5.48463 50.5192 5.56684C50.2812 5.64905 49.9993 5.79585 49.6735 6.00725C49.9366 5.60794 50.3313 5.19689 50.8575 4.77409C51.3838 4.33955 51.8849 4.12228 52.3611 4.12228C52.8622 4.12228 53.5388 4.962 54.3908 6.64145C55.2428 8.3209 55.7691 9.32504 55.9695 9.65389C56.0572 9.54819 56.3391 9.00794 56.8153 8.03316C57.3039 7.05838 57.5983 6.4418 57.6986 6.18342C57.5858 6.03074 57.473 5.87219 57.3603 5.70777C57.1974 5.51986 56.9719 5.3848 56.6837 5.30259C56.8716 5.04421 57.0846 4.78584 57.3227 4.52746C57.5607 4.25734 57.8176 4.12228 58.0932 4.12228C58.394 4.12228 58.6696 4.35129 58.9202 4.80933C59.1708 5.25561 59.6093 6.11883 60.2358 7.39896C60.8622 8.66736 61.3133 9.40725 61.5889 9.61865C61.8145 9.34853 62.0839 8.88463 62.3971 8.22694C62.7103 7.55751 62.8669 7.11123 62.8669 6.88808C62.8669 6.5475 62.7166 6.17755 62.4159 5.77824C62.1277 5.37893 61.7957 5.07358 61.4198 4.86218C61.6829 4.47461 61.9398 4.15751 62.1903 3.91088C62.4409 3.66425 62.6665 3.54093 62.8669 3.54093Z" fill="#3CB44B"/>
<path d="M70.5023 5.81347L70.4836 10.7285C70.4961 10.8812 70.5713 10.9575 70.7091 10.9575C70.897 10.9575 71.2541 10.7872 71.7803 10.4466C71.6049 10.799 71.3418 11.1161 70.991 11.3979C70.6527 11.6798 70.2706 11.8207 69.8446 11.8207C69.4186 11.8207 69.1179 11.6974 68.9424 11.4508C68.767 11.1924 68.6793 10.8812 68.6793 10.5171V6.71192C68.6793 6.46528 68.6543 6.27737 68.6042 6.14819C68.554 6.00725 68.3974 5.93679 68.1343 5.93679C67.7208 5.93679 67.2886 6.22452 66.8375 6.8C66.3865 7.37547 66.1609 7.78066 66.1609 8.01554V10.0943C66.1609 10.5406 65.9855 10.9399 65.6347 11.2922C65.2839 11.6446 64.8516 11.8207 64.3379 11.8207V3.04767C64.3379 2.20207 64.5822 1.48566 65.0709 0.898445C65.5595 0.299482 66.1985 0 66.9879 0H68.6793C68.2784 0.681175 67.7584 1.04525 67.1194 1.09223C66.4804 1.12746 66.1609 1.23316 66.1609 1.40933V7.09948C66.7874 6.11295 67.3825 5.37893 67.9464 4.89741C68.5227 4.41589 69.0051 4.17513 69.3935 4.17513C69.8446 4.17513 70.139 4.29257 70.2768 4.52746C70.4272 4.76235 70.5023 5.19102 70.5023 5.81347Z" fill="#3CB44B"/>
<path d="M78.5904 4.21036V10.7285C78.603 10.8812 78.6844 10.9575 78.8348 10.9575C78.9475 10.9575 79.0791 10.9223 79.2294 10.8518C79.3923 10.7696 79.6492 10.6345 80 10.4466C79.8371 10.7637 79.5615 11.075 79.1731 11.3803C78.7972 11.6857 78.4338 11.8383 78.083 11.8383C77.8825 11.8383 77.6194 11.7092 77.2937 11.4508C76.9804 11.1924 76.8238 10.8459 76.8238 10.4114V9.4601C76.0595 10.1765 75.4143 10.752 74.888 11.1865C74.3618 11.6211 73.9045 11.8383 73.5161 11.8383C73.09 11.8383 72.7079 11.6035 72.3696 11.1337C72.0439 10.6639 71.881 10.0356 71.881 9.2487C71.881 7.65147 72.3508 6.41243 73.2905 5.53161C74.2302 4.65078 75.4518 4.21036 76.9554 4.21036H78.5904ZM73.6852 7.90984C73.6852 8.48532 73.7854 8.90812 73.9859 9.17824C74.1864 9.44836 74.462 9.58342 74.8128 9.58342C75.1135 9.58342 75.4331 9.50121 75.7713 9.33679C76.1222 9.16062 76.473 8.92573 76.8238 8.63212V4.70363C75.8841 4.70363 75.1261 5.03247 74.5497 5.69016C73.9734 6.3361 73.6852 7.07599 73.6852 7.90984Z" fill="#3CB44B"/>
</svg>
