<svg width="43" height="43" viewBox="0 0 43 43" fill="none" xmlns="http://www.w3.org/2000/svg">
<path d="M28.6668 16.107V36.4603C28.6668 39.0582 26.8035 40.1511 24.5281 38.897L17.4868 34.9732C16.7343 34.5611 15.516 34.5611 14.7635 34.9732L7.72224 38.897C5.44683 40.1511 3.5835 39.0582 3.5835 36.4603V16.107C3.5835 13.0432 6.0918 10.5349 9.15555 10.5349H23.0948C26.1585 10.5349 28.6668 13.0432 28.6668 16.107Z" stroke="white" stroke-width="1.5" stroke-linecap="round" stroke-linejoin="round"/>
<path d="M39.4168 9.15531V29.5087C39.4168 32.1066 37.5535 33.1995 35.2781 31.9453L28.6668 28.2545V16.107C28.6668 13.0432 26.1585 10.5349 23.0948 10.5349H14.3335V9.15531C14.3335 6.09156 16.8418 3.58325 19.9056 3.58325H33.8448C36.9085 3.58325 39.4168 6.09156 39.4168 9.15531Z" stroke="white" stroke-width="1.5" stroke-linecap="round" stroke-linejoin="round"/>
<path d="M12.5415 21.5H19.7082" stroke="white" stroke-width="1.5" stroke-linecap="round" stroke-linejoin="round"/>
<path d="M16.125 25.0834V17.9167" stroke="white" stroke-width="1.5" stroke-linecap="round" stroke-linejoin="round"/>
</svg>
