<svg width="43" height="43" viewBox="0 0 43 43" fill="none" xmlns="http://www.w3.org/2000/svg">
<g id="vuesax/linear/save-add">
<g id="save-add">
<path id="Vector" d="M28.6668 16.1071V36.4605C28.6668 39.0584 26.8035 40.1513 24.5281 38.8971L17.4868 34.9733C16.7343 34.5613 15.516 34.5613 14.7635 34.9733L7.72224 38.8971C5.44683 40.1513 3.5835 39.0584 3.5835 36.4605V16.1071C3.5835 13.0433 6.0918 10.535 9.15555 10.535H23.0948C26.1585 10.535 28.6668 13.0433 28.6668 16.1071Z" stroke="#03D664" stroke-width="1.5" stroke-linecap="round" stroke-linejoin="round"/>
<path id="Vector_2" d="M39.4168 9.15543V29.5088C39.4168 32.1067 37.5535 33.1996 35.2781 31.9454L28.6668 28.2546V16.1071C28.6668 13.0434 26.1585 10.535 23.0948 10.535H14.3335V9.15543C14.3335 6.09168 16.8418 3.58337 19.9056 3.58337H33.8448C36.9085 3.58337 39.4168 6.09168 39.4168 9.15543Z" stroke="#03D664" stroke-width="1.5" stroke-linecap="round" stroke-linejoin="round"/>
<path id="Vector_3" d="M12.5415 21.5H19.7082" stroke="#03D664" stroke-width="1.5" stroke-linecap="round" stroke-linejoin="round"/>
<path id="Vector_4" d="M16.125 25.0833V17.9166" stroke="#03D664" stroke-width="1.5" stroke-linecap="round" stroke-linejoin="round"/>
</g>
</g>
</svg>
