<svg width="320" height="232" viewBox="0 0 320 232" fill="none" xmlns="http://www.w3.org/2000/svg">
<rect width="320" height="320" fill="#FBFBFB" fill-opacity="0.3"/>
<path d="M283.5 -2H37V154.5L118.5 316.5H283.5V-2Z" fill="#1EF380"/>
<rect x="65.5" y="16" width="190" height="52" fill="#F2F2F2"/>
<path d="M134.676 31.6953V33.9922H143.816V31.6953H146.395V40.2969H140.535V42.2422H148.902V44.3516H129.59V42.2422H137.91V40.2969H132.098V31.6953H134.676ZM134.676 38.2109H143.816V36.0078H134.676V38.2109ZM146.723 49.5547V51.6641H131.98V45.7109H134.582V49.5547H146.723ZM169.668 42.8984V45.0078H161.23V52.0625H158.652V45.0078H150.309V42.8984H169.668ZM167.301 31.9766V40.4141H152.676V31.9766H167.301ZM155.23 34.0625V38.375H164.699V34.0625H155.23ZM189.309 30.8984V52.0859H186.824V41.2812H184.434V51.0078H182.043V31.2969H184.434V39.1953H186.824V30.8984H189.309ZM179.652 33.4062V35.5156H174.355V44.9375C176.664 44.9141 178.562 44.7969 180.707 44.3984L180.895 46.5312C178.34 47.0469 176.113 47.1172 173.16 47.1406H171.73V33.4062H179.652Z" fill="#BBBBBB"/>
<rect x="54.5" y="81" width="121" height="34" fill="#9747FF"/>
<path d="M71.7101 91.112V94.82H74.3021V91.112H76.1021V101.732H69.8381V91.112H71.7101ZM71.7101 100.148H74.3021V96.368H71.7101V100.148ZM77.6501 104.792V89.96H79.4861V95.828H81.1781V89.672H83.0501V105.548H81.1781V97.412H79.4861V104.792H77.6501ZM98.1387 89.672V105.584H96.1947V89.672H98.1387ZM85.7907 101.84V95.468H91.2627V92.66H85.7907V91.076H93.2787V97.016H87.8067V100.22C90.3087 100.202 92.4507 100.076 94.9347 99.68L95.1147 101.264C92.4147 101.732 90.0387 101.822 87.1947 101.84H85.7907ZM104.803 90.824C106.963 90.842 108.565 92.642 108.835 95.54H111.859V89.672H113.803V105.584H111.859V97.088H108.853C108.655 100.166 107.035 102.074 104.803 102.056C102.427 102.074 100.735 99.896 100.735 96.44C100.735 93.02 102.427 90.842 104.803 90.824ZM102.607 96.44C102.607 98.888 103.507 100.31 104.803 100.292C106.135 100.31 107.017 98.888 107.035 96.44C107.017 94.028 106.135 92.588 104.803 92.588C103.507 92.588 102.607 94.028 102.607 96.44ZM130.548 102.02V103.64H116.04V102.02H130.548ZM117.228 92.732V91.148H129.288V92.732H126.948V97.772H129.216V99.32H117.264V97.772H119.532V92.732H117.228ZM121.476 97.772H125.04V92.732H121.476V97.772ZM144.809 89.672V105.584H142.865V89.672H144.809ZM132.461 101.84V95.468H137.933V92.66H132.461V91.076H139.949V97.016H134.477V100.22C136.979 100.202 139.121 100.076 141.605 99.68L141.785 101.264C139.085 101.732 136.709 101.822 133.865 101.84H132.461ZM152.913 92.192C152.895 94.226 154.173 96.188 156.621 96.98L155.577 98.528C153.849 97.916 152.625 96.71 151.941 95.198C151.239 96.872 149.961 98.168 148.125 98.852L147.081 97.268C149.655 96.404 150.933 94.334 150.933 92.084V90.5H152.913V92.192ZM149.601 101.444V99.896H160.437V105.548H158.493V101.444H149.601ZM155.325 94.352V92.768H158.493V89.672H160.437V99.104H158.493V94.352H155.325Z" fill="white"/>
</svg>
