<svg width="44" height="44" viewBox="0 0 44 44" fill="none" xmlns="http://www.w3.org/2000/svg">
<g id="shop-add">
<path id="Vector" d="M38.5184 20.5693V28.801C38.5184 37.0327 35.2366 40.3327 26.9866 40.3327H17.105C16.0417 40.3327 15.07 40.2778 14.1716 40.1494" stroke="#C1D9CC" stroke-width="2" stroke-linecap="round" stroke-linejoin="round"/>
<path id="Vector_2" d="M5.57336 28.4528V20.5693" stroke="#C1D9CC" stroke-width="2" stroke-linecap="round" stroke-linejoin="round"/>
<path id="Vector_3" d="M22.055 22.0003C25.41 22.0003 27.885 19.2688 27.555 15.9138L26.3266 3.66699H17.765L16.5367 15.9138C16.2067 19.2688 18.7 22.0003 22.055 22.0003Z" stroke="#C1D9CC" stroke-width="2" stroke-linecap="round" stroke-linejoin="round"/>
<path id="Vector_4" d="M33.6051 22.0003C37.3084 22.0003 40.0217 18.9936 39.6551 15.3086L39.1417 10.2669C38.4817 5.50028 36.6484 3.66699 31.8451 3.66699H26.2534L27.5368 16.5187C27.8668 19.5437 30.5801 22.0003 33.6051 22.0003Z" stroke="#C1D9CC" stroke-width="2" stroke-linecap="round" stroke-linejoin="round"/>
<path id="Vector_5" d="M10.395 22.0003C13.42 22.0003 16.1517 19.5437 16.445 16.5187L16.8484 12.4671L17.7284 3.66699H12.1367C7.33339 3.66699 5.50009 5.50028 4.84009 10.2669L4.3267 15.3086C3.96003 18.9936 6.6917 22.0003 10.395 22.0003Z" stroke="#C1D9CC" stroke-width="2" stroke-linecap="round" stroke-linejoin="round"/>
<path id="Vector_6" d="M16.5 34.8333C16.5 36.2083 16.115 37.5101 15.4367 38.6101C15.0883 39.1968 14.6667 39.7284 14.1717 40.15C14.1167 40.2234 14.0617 40.2783 13.9884 40.3333C12.705 41.4883 11.0184 42.1667 9.16671 42.1667C6.93004 42.1667 4.93165 41.1583 3.61165 39.5816C3.57499 39.5266 3.52009 39.49 3.48342 39.435C3.26342 39.1784 3.06174 38.9034 2.89674 38.6101C2.21841 37.5101 1.83337 36.2083 1.83337 34.8333C1.83337 32.5233 2.89671 30.4517 4.58337 29.1133C4.89504 28.8567 5.225 28.6367 5.57333 28.4534C6.63667 27.8484 7.86504 27.5 9.16671 27.5C11 27.5 12.65 28.1599 13.9333 29.2783C14.1533 29.4433 14.355 29.6451 14.5384 29.8467C15.7484 31.1667 16.5 32.9083 16.5 34.8333Z" stroke="#C1D9CC" stroke-width="2" stroke-miterlimit="10" stroke-linecap="round" stroke-linejoin="round"/>
<g id="Group">
<path id="Vector_7" d="M11.8984 34.7959H6.43506" stroke="#C1D9CC" stroke-width="2" stroke-miterlimit="10" stroke-linecap="round" stroke-linejoin="round"/>
<path id="Vector_8" d="M9.16663 32.1191V37.6008" stroke="#C1D9CC" stroke-width="2" stroke-miterlimit="10" stroke-linecap="round" stroke-linejoin="round"/>
</g>
</g>
</svg>
