<svg width="26" height="26" viewBox="0 0 26 26" fill="none" xmlns="http://www.w3.org/2000/svg">
<g id="trash">
<path id="Vector" d="M22.75 6.47819C19.1425 6.12069 15.5133 5.93652 11.895 5.93652C9.75 5.93652 7.605 6.04486 5.46 6.26152L3.25 6.47819" stroke="white" stroke-width="1.5" stroke-linecap="round" stroke-linejoin="round"/>
<path id="Vector_2" d="M9.20837 5.38449L9.44671 3.96533C9.62004 2.93616 9.75004 2.16699 11.5809 2.16699H14.4192C16.25 2.16699 16.3909 2.97949 16.5534 3.97616L16.7917 5.38449" stroke="white" stroke-width="1.5" stroke-linecap="round" stroke-linejoin="round"/>
<path id="Vector_3" d="M20.4208 9.90137L19.7166 20.8105C19.5974 22.5114 19.4999 23.833 16.4774 23.833H9.52243C6.49993 23.833 6.40244 22.5114 6.28327 20.8105L5.5791 9.90137" stroke="white" stroke-width="1.5" stroke-linecap="round" stroke-linejoin="round"/>
<path id="Vector_4" d="M11.1908 17.875H14.7983" stroke="white" stroke-width="1.5" stroke-linecap="round" stroke-linejoin="round"/>
<path id="Vector_5" d="M10.2916 13.542H15.7083" stroke="white" stroke-width="1.5" stroke-linecap="round" stroke-linejoin="round"/>
</g>
</svg>
