<svg width="19" height="19" viewBox="0 0 19 19" fill="none" xmlns="http://www.w3.org/2000/svg">
<g id="arrow-circle-up">
<path id="Vector" d="M9.50016 1.58325C5.13808 1.58325 1.5835 5.13784 1.5835 9.49992C1.5835 13.862 5.13808 17.4166 9.50016 17.4166C13.8622 17.4166 17.4168 13.862 17.4168 9.49992C17.4168 5.13784 13.8622 1.58325 9.50016 1.58325ZM12.7143 10.917C12.5956 11.0358 12.4452 11.0912 12.2947 11.0912C12.1443 11.0912 11.9939 11.0358 11.8752 10.917L9.50016 8.542L7.12516 10.917C6.89558 11.1466 6.51558 11.1466 6.286 10.917C6.05641 10.6874 6.05641 10.3074 6.286 10.0778L9.08058 7.28325C9.31016 7.05367 9.69016 7.05367 9.91975 7.28325L12.7143 10.0778C12.9439 10.3153 12.9439 10.6874 12.7143 10.917Z" fill="#5AEAAE"/>
</g>
</svg>
