<svg width="17" height="18" viewBox="0 0 17 18" fill="none" xmlns="http://www.w3.org/2000/svg">
<g id="messages-2">
<path id="Vector" d="M13.083 12.4211L13.3592 14.6594C13.4301 15.2473 12.7996 15.6581 12.2967 15.3536L9.3288 13.5898C9.00297 13.5898 8.68423 13.5686 8.37256 13.5261C8.89673 12.9098 9.20839 12.1307 9.20839 11.2877C9.20839 9.27607 7.46589 7.64694 5.31255 7.64694C4.49089 7.64694 3.73297 7.88067 3.10256 8.2915C3.08131 8.11442 3.07422 7.93733 3.07422 7.75316C3.07422 4.53025 5.87214 1.9165 9.3288 1.9165C12.7855 1.9165 15.5834 4.53025 15.5834 7.75316C15.5834 9.66566 14.5988 11.3586 13.083 12.4211Z" stroke="white" stroke-width="1.3" stroke-linecap="round" stroke-linejoin="round"/>
<path id="Vector_2" d="M9.20817 11.2878C9.20817 12.1307 8.89651 12.9099 8.37234 13.5261C7.67109 14.3761 6.559 14.9215 5.31234 14.9215L3.46359 16.0194C3.15192 16.2107 2.75525 15.9486 2.79775 15.5874L2.97484 14.192C2.02567 13.5332 1.4165 12.4778 1.4165 11.2878C1.4165 10.0411 2.08234 8.9432 3.10234 8.29154C3.73276 7.8807 4.49067 7.64697 5.31234 7.64697C7.46567 7.64697 9.20817 9.27611 9.20817 11.2878Z" stroke="white" stroke-width="1.3" stroke-linecap="round" stroke-linejoin="round"/>
</g>
</svg>
