<svg width="14" height="14" viewBox="0 0 14 14" fill="none" xmlns="http://www.w3.org/2000/svg">
<g id="notification">
<path id="Vector" d="M7.01184 1.69727C5.08101 1.69727 3.51184 3.26643 3.51184 5.19727V6.8831C3.51184 7.23893 3.36017 7.78143 3.17934 8.08477L2.50851 9.19893C2.09434 9.88727 2.38017 10.6514 3.13851 10.9081C5.65267 11.7481 8.36517 11.7481 10.8793 10.9081C11.5852 10.6748 11.8943 9.8406 11.5093 9.19893L10.8385 8.08477C10.6635 7.78143 10.5118 7.23893 10.5118 6.8831V5.19727C10.5118 3.27227 8.93684 1.69727 7.01184 1.69727Z" stroke="black" stroke-miterlimit="10" stroke-linecap="round"/>
<path id="Vector_2" d="M8.09095 1.86684C7.91012 1.81434 7.72345 1.7735 7.53095 1.75017C6.97095 1.68017 6.43428 1.721 5.93262 1.86684C6.10178 1.43517 6.52178 1.13184 7.01178 1.13184C7.50178 1.13184 7.92178 1.43517 8.09095 1.86684Z" stroke="black" stroke-miterlimit="10" stroke-linecap="round" stroke-linejoin="round"/>
<path id="Vector_3" d="M8.76172 11.1182C8.76172 12.0807 7.97422 12.8682 7.01172 12.8682C6.53339 12.8682 6.09005 12.6698 5.77505 12.3548C5.46005 12.0398 5.26172 11.5965 5.26172 11.1182" stroke="black" stroke-miterlimit="10"/>
</g>
</svg>
